<svg id="ed969318-4208-4d0d-ba46-70c4a22989aa" data-name="Layer 1" xmlns="http://www.w3.org/2000/svg" width="865.76"
     height="682.89" viewBox="0 0 865.76 682.89">
    <path d="M110,407.57s-84.72-130.69-16.49-244c0,0,36.63-74.13,162.26-36.41,0,0,51.48,23,110.58,29.54a179.61,179.61,0,0,0,143.13-47.91C536,83.68,595,45,688.73,75.12c0,0,120.82,44.21,109.33,217.74,0,0-4.87,189.19-201.9,259.16L254.38,541Z"
          fill="#0071f2"/>
    <path d="M110,407.57s-84.72-130.69-16.49-244c0,0,36.63-74.13,162.26-36.41,0,0,51.48,23,110.58,29.54a179.61,179.61,0,0,0,143.13-47.91C536,83.68,595,45,688.73,75.12c0,0,120.82,44.21,109.33,217.74,0,0-4.87,189.19-201.9,259.16L254.38,541Z"
          fill="#fff" opacity="0.7"/>
    <path d="M262.37,85.24s2-29,64.9-19.58A105.15,105.15,0,0,1,338.66,68c11.07,2.91,43.95,9.78,80.78.61A130.11,130.11,0,0,0,450,56.54c14.16-7.66,45.83-22,55.42-3.44,0,0,21.62,27.4-37,53.13,0,0-42.24,47.47-149.15,25.74C319.28,132,256.48,115.52,262.37,85.24Z"
          fill="#0071f2"/>
    <path d="M262.37,85.24s2-29,64.9-19.58A105.15,105.15,0,0,1,338.66,68c11.07,2.91,43.95,9.78,80.78.61A130.11,130.11,0,0,0,450,56.54c14.16-7.66,45.83-22,55.42-3.44,0,0,21.62,27.4-37,53.13,0,0-42.24,47.47-149.15,25.74C319.28,132,256.48,115.52,262.37,85.24Z"
          fill="#fff" opacity="0.7"/>
    <circle cx="688.73" cy="319.64" r="65.99" fill="#fff" opacity="0.45"/>
    <path d="M688.73,386.24a66.6,66.6,0,1,1,66.6-66.6A66.66,66.66,0,0,1,688.73,386.24Zm0-132a65.38,65.38,0,1,0,65.38,65.38A65.45,65.45,0,0,0,688.73,254.26Z"
          fill="#0071f2"/>
    <path d="M687.76,284a20.82,20.82,0,0,0-20.82,20.82v6.77h41.63v-6.77A20.82,20.82,0,0,0,687.76,284Zm13.33,26.46h-27v-6.18a13.49,13.49,0,0,1,27,0Z"
          fill="#0071f2"/>
    <path d="M682.27,235.17S673,253.93,666,263.47a12.2,12.2,0,0,0-1.54,2.66,12.36,12.36,0,0,0-1.08,6.33,3.92,3.92,0,0,0,4.18,3.15c3.26-.23,9.61-2,16.79-10.67,0,0,6.7-8.11,8.25-15.27C692.58,249.67,684.78,245.83,682.27,235.17Z"
          fill="#0071f2"/>
    <path d="M678.72,242.07s9,8,5.61,17.28c0,0-4.24,8.45-8.6,13.37,0,0,11.64-6.77,16.85-23.05a23.37,23.37,0,0,1-10.31-14.5Z"
          opacity="0.2"/>
    <path d="M458.85,85.35c30.35.07,88.26,0,118.19-.11a16.54,16.54,0,0,1,16.29,18.93L560.87,335.89A20.88,20.88,0,0,1,539.66,354l-122.85-3.55a12.57,12.57,0,0,1-12-14.34l31.91-231.3A22.38,22.38,0,0,1,458.85,85.35Z"
          fill="#242424"/>
    <path d="M450.48,92.13c30.34.06,88.26,0,118.18-.11A16.41,16.41,0,0,1,585,110.74L552.5,340a20.84,20.84,0,0,1-21.22,17.9l-122.85-3.51a12.47,12.47,0,0,1-12-14.19l31.9-228.85A22.29,22.29,0,0,1,450.48,92.13Z"
          fill="#242424"/>
    <path d="M450.48,92.13c30.34.06,88.26,0,118.18-.11A16.41,16.41,0,0,1,585,110.74L552.5,340a20.84,20.84,0,0,1-21.22,17.9l-122.85-3.51a12.47,12.47,0,0,1-12-14.19l31.9-228.85A22.29,22.29,0,0,1,450.48,92.13Z"
          opacity="0.2"/>
    <path d="M579.67,117.61l-31,216.88c-1.39,10.49-9.88,18.2-19.75,17.9l-116.44-.88A11,11,0,0,1,404,346.7a14.62,14.62,0,0,1-2.69-10.36l30.35-215c2.36-19.46,17.27-24.24,27.64-24.22,28.26.07,77.31,1.83,105.16,1.75C573.82,98.87,581,107.72,579.67,117.61Z"
          fill="#fff"/>
    <path d="M459.34,97.13S437.9,101.5,436.72,121L407.31,345.53,404,346.7a14.62,14.62,0,0,1-2.69-10.36l30.35-215C434.06,101.89,449,97.11,459.34,97.13Z"
          fill="#0071f2" opacity="0.18"/>
    <path d="M443,106.23H577.27s-4.52-7.32-12.77-7.35L459.34,97.13S447.26,100,443,106.23Z" fill="#0071f2"
          opacity="0.3"/>
    <path d="M460,220.22,467,177a43.1,43.1,0,0,1,26.83-29.2c10.61-4,22.7-2.33,31.23,5.14,5,4.35,9.17,10.89,9.6,20.62l-7.06,48.06s-3,26.4-31.9,34.18c-10.19,2.74-21.22.23-28.53-7.38C461.8,242.83,457.72,234,460,220.22Z"
          fill="#0071f2"/>
    <path d="M460,220.22,467,177a43.1,43.1,0,0,1,26.83-29.2c10.61-4,22.7-2.33,31.23,5.14,5,4.35,9.17,10.89,9.6,20.62l-7.06,48.06s-3,26.4-31.9,34.18c-10.19,2.74-21.22.23-28.53-7.38C461.8,242.83,457.72,234,460,220.22Z"
          opacity="0.2"/>
    <rect x="441.18" y="274.87" width="83.57" height="25.99" rx="10.67" fill="#0071f2"/>
    <polygon points="424.33 611.76 424.33 617.66 450.22 627.45 450.22 623.24 424.33 611.76" fill="#242424"/>
    <path d="M454.43,624.94v4.88l22.5,7.42s33.23,8.34,33.83-12.3Z" fill="#242424"/>
    <path d="M344.83,311.83v0l-5.69-18.25c-29.73-80.94,3.09-75.71,3.09-75.71,29.24-2.1,42.29,92.42,42.29,92.42,14.71,63.12,73.09,79.34,92.73,83.06A120.3,120.3,0,0,1,494.59,398c64,22.45,84.16,50.16,84.16,50.16C623.14,500.34,596.16,552,596.16,552c-41.08,11.15-194.93,36.9-194.93,36.9-82.85,7-144.12-32.72-144.12-32.72-21.58-17.4-77.46-35.86-77.46-35.86-13.74-3.82-16.88-7.65-16.88-7.65l-18.45-16c-3.47-2.36-6.92-4.86-10.33-7.47L78.33,424.74c6.41-7.81,21.7-19.07,56.83-20.26a69.65,69.65,0,0,1,34.89,7.62c3.23,1.7,12,9.35,9.6,6.2-13.4-17.46-31.5-59.48-31.5-59.48-9.75-21.23-17.06-73.1-17.06-73.1l-7.3-39.21.42-57.58c57.36-6.53,61.54,67.21,61.54,67.21,5.22,27.14,16.71,57.79,16.71,57.79A427.5,427.5,0,0,0,239,358.81h0c-12.59-28.25-27-61-32.14-72.77a82.71,82.71,0,0,1-3.7-10.19c-11-38-9.92-76.6-9.78-80.92l6.91-57.47a21.56,21.56,0,0,1,7.39.32c41.42,4.17,41.42,66.83,41.42,66.83l40.38-39a17.39,17.39,0,0,1,2.21-.5c11.35-1.84,18.44,9,22.58,19.54a73.45,73.45,0,0,1,5,25.37c1.3,61.61,24.78,100.56,25.53,101.77"
          fill="#f9b499"/>
    <path d="M356.78,473.45S473.09,429.39,530.67,541C530.67,541,500.12,417.64,356.78,473.45Z" fill="#f7a48b"/>
    <path d="M134,489.21C107.48,469,83.54,443,76.24,434.81a5.29,5.29,0,0,1-.61-6.21,29.29,29.29,0,0,1,2.7-3.86S148.38,460.52,134,489.21Z"
          fill="#0071f2"/>
    <path d="M123.89,246.57l-7.66-41.21c-3.83-16.36,8-16.36,8-16.36h.08l7.59,37.61C134,242.27,123.89,246.57,123.89,246.57Z"
          fill="#0071f2"/>
    <path d="M193.38,194.93l0-.4-3.84-47c1.46-7.11,6.37-9.45,10.72-10.06l3.9,47S204.76,194.19,193.38,194.93Z"
          fill="#0071f2"/>
    <path d="M146.16,354s50.7,76.85,107.46,97.78L321,479l-44.73-10.89s-37.56-7.3-96.62-49.81C179.65,418.3,158.24,385.8,146.16,354Z"
          fill="#f7a48b"/>
    <path d="M249.16,196.89V175.08L271,184.34,273.12,200S258.07,203.35,249.16,196.89Z" fill="#f4bba8"/>
    <path d="M249.16,175.08V188s17.57,9.79,24,12L271,184.34Z" fill="#f49984"/>
    <path d="M324.64,334.11s-28.44,18.29-82.5,17.4c0,0-9.94-3.51-12.13-15.88a26.56,26.56,0,0,1-.4-3.61l-19.84-70.31a86.52,86.52,0,0,1-5.58-19.44c-.95-6-1.18-12.67.39-18.69A21.69,21.69,0,0,1,220,208.21l27.48-7.36s-1.88-7.81,5.31-4c0,0,10.37,4,16.54,3.12,0,0,4.54-1.52,5,1.44v2.08s27.1-1.08,38.59,3.39a7.33,7.33,0,0,1,2.56,1.67,8,8,0,0,1,2.4,5.6c.14,9,.65,34.91,2.11,59,.51,8.51,1.14,16.79,1.92,24a73,73,0,0,0,1.88,10.2h0a4.43,4.43,0,0,1,.13.49,101.15,101.15,0,0,0,4.15,12.15C329.66,323.89,330.11,329.2,324.64,334.11Z"
          fill="#0071f2"/>
    <path d="M247.52,200.85,241,202.59s8.69,7.44,28.67,3.35C269.68,205.94,251.29,205.58,247.52,200.85Z" opacity="0.2"/>
    <path d="M324,307.9h0c-.95.76-41.64,32.77-68.75,35.43A25.91,25.91,0,0,1,242,341.06l-12-5.43a26.56,26.56,0,0,1-.4-3.61l-19.84-70.31a86.52,86.52,0,0,1-5.58-19.44s64.31,46,116.81,45c0,0,.62,12.67,2.81,20.18h0Z"
          opacity="0.2"/>
    <path d="M434.06,200.85s-16.68,101.51-38.54,103.74c0,0-11.47.37-24.81-7L320,273.17c-.28-4.52-.51-9.11-.73-13.63-.92-19.62-1.27-38.11-1.38-45.4a8,8,0,0,0-2.4-5.6l.25-.25s9.75-.41,21.61,16.27c0,0,30,31.12,47.05,38.54,0,0,25.94-55.22,27.42-70,0,0,10.32.94,16.93,3.62C431.45,197.77,433.52,199.14,434.06,200.85Z"
          fill="#0071f2"/>
    <path d="M434.06,200.85s-16.68,101.51-38.54,103.74c0,0-11.47.37-24.81-7L320,273.17c-.28-4.52-.51-9.11-.73-13.63-.92-19.62-1.27-38.11-1.38-45.4a8,8,0,0,0-2.4-5.6l.25-.25s9.75-.41,21.61,16.27c0,0,30,31.12,47.05,38.54,0,0,25.94-55.22,27.42-70,0,0,10.32.94,16.93,3.62C431.45,197.77,433.52,199.14,434.06,200.85Z"
          fill="#fff" opacity="0.3"/>
    <path d="M434.06,200.85s-16.68,101.51-38.54,103.74c0,0-11.47.37-24.81-7L320,273.17l-.73-13.63,41.05,26.81c13.7,7.7,24.83-2.27,24.83-2.27,7-9.76,8.89,1.62,8.89,1.62,12.6,9.62,34.71-89,34.71-89C431.45,197.77,433.52,199.14,434.06,200.85Z"
          fill="#fff" opacity="0.3"/>
    <path d="M320,273.17l3.95,1.9-2-36.71s.19-10.84-3.89-16.39Z" opacity="0.2"/>
    <path d="M434.06,200.85s10.51-35.62,4.35-47.58a1.42,1.42,0,0,0-2.64.37,27.2,27.2,0,0,0-.49,5.24,15.18,15.18,0,0,1-1.37,6.19,18.39,18.39,0,0,1-2.22,3.84s4.83-20.14-.65-24.36c0,0-2.86-1.87-3,5.32,0,0-1.57,15.15-6.39,17.61,0,0,5.38-17.75,5-25.17a2,2,0,0,0-3.53-1.17c-2.25,2.63-5.38,9.49-7.52,27.28,0,0-1.4-15.94-.38-22.88a2.19,2.19,0,0,0-3.85-1.75c-1.06,1.32-2.15,3.93-3,8.75a17.19,17.19,0,0,0-.29,3.65c.1,4,.36,13.77.65,18.81,0,0-1.42-7.5-7.55-8.69,0,0-3.16-.37,1.14,6.49,0,0,9.42,14.49,9.56,20.26C411.83,193.06,431.35,194.63,434.06,200.85Z"
          fill="#f4bba8"/>
    <path d="M737,286.25c-7,2.15-5.52-8.66-5.52-8.66.37-4.3.5-8.26.45-11.87-.17-17.05-4.09-26.31-4.09-26.31-.76-2.76-1.94-1.85-2-.23a8.16,8.16,0,0,1-.51,2.58c-3.94,11.38-17.44,11.81-17.44,11.81-25-.24-26.18-21.62-26.18-21.62-11.05,1.69-16.34-8.41-16.34-8.41l15.38-.24c0-5.53,7.44-11.05,7.44-11.05C686,195.2,662,178.61,662,178.61l-1.06-.54c-34.07-17.55-36.18-32.61-36.18-32.61a54.37,54.37,0,0,1-1.56-7.06,37.76,37.76,0,0,1-.23-10.27,26.41,26.41,0,0,1,6.57-14.73c5.86-6.53,14.11-9.41,19.07-10.62a19.61,19.61,0,0,1,6.26-.34c3.7.29,1.12-4.3,1.12-4.3L641.35,79.63c-5.76-8.88-2.87-12.73-2.87-12.73,5.29-5,11.29,1.93,11.29,1.93L668.6,85.07l5.67,4.9c14.17,13,12,18,12,18,37.64,15.51,46.29,67.35,47.43,75.35a10.72,10.72,0,0,0,.53,2.15c10.43,29.41,11.61,76.88,11.61,76.88C746.58,282.2,737,286.25,737,286.25Z"
          fill="#e6e7e8"/>
    <path d="M737,286.25c-7,2.15-5.52-8.66-5.52-8.66.37-4.3.5-8.26.45-11.87h0c12.79.45,5.84-40.38,5.84-40.38-5.42-38.23-15.92-65.35-20.35-75.59a54.77,54.77,0,0,0-4.69-8.69c-17-25.31-45.28-38.18-45.28-38.18H673a4,4,0,0,0,3.82-5.43c-2.1-5.33-8.26-12.38-8.26-12.38l5.67,4.9c14.17,13,12,18,12,18,37.64,15.51,46.29,67.35,47.43,75.35a10.72,10.72,0,0,0,.53,2.15c10.43,29.41,11.61,76.88,11.61,76.88C746.58,282.2,737,286.25,737,286.25Z"
          fill="#0071f2" opacity="0.3"/>
    <path d="M693.43,250.17s37.68,3.22,25.84-29.85c0,0,5.6,4,6.58,18.86,0,0-.54,12.12-18,14.39C707.9,253.57,701.27,254.51,693.43,250.17Z"
          fill="#0071f2" opacity="0.3"/>
    <path d="M706.25,225.6c-1.46,2.08-6.48,9.12-9.42,12a.72.72,0,0,0,.45,1.24c3.27.26,10.58.25,15.67-4.07,0,0,2.79-7.35-5.57-9.62A1.05,1.05,0,0,0,706.25,225.6Z"
          fill="#0071f2"/>
    <ellipse cx="712.59" cy="168.88" rx="11.77" ry="18.58" transform="translate(-14.77 83.69) rotate(-6.65)"
             fill="#0071f2"/>
    <path d="M661,178.07h0l-3.11-1.64-.09,0c-31-16.82-33-30.93-33-30.93a54.37,54.37,0,0,1-1.56-7.06c5.4-6.45,14-11.15,24-12.32,11.27-1.3,21.77,2.11,28.55,8.41A23.37,23.37,0,0,1,683.42,149C684.91,161.7,675.25,173.59,661,178.07Z"
          fill="#0071f2"/>
    <path d="M661,178.07h0l-3.11-1.64-.09,0c35.22-12.44,18.56-41,18-41.9A23.37,23.37,0,0,1,683.42,149C684.91,161.7,675.25,173.59,661,178.07Z"
          opacity="0.2"/>
    <path d="M629.56,113.4A26.41,26.41,0,0,0,623,128.13c-.3-.52-8-13.36-16.07-19.22,0,0-13.47-9.33-6-11.78,0,0,7.44-5.06,22.06,9.1Z"
          fill="#0071f2"/>
    <path d="M629.56,113.4c-6.34,7.71-6.57,14.73-6.57,14.73l-1.46-2.33c4.38-17.79-15.35-29.55-15.35-29.55s7,.24,14.1,7.49l2.72,2.49Z"
          opacity="0.2"/>
    <path d="M633.8,109.54s-10.57-18.92-42-30.45c0,0-12.55-5-32.8-4.93a29,29,0,0,1-7.19-.82c-5-1.27-11.8-4.36-10.05-11.66,0,0,3.24-19.14,43.32-8.1,0,0,42.89,9.9,60.37,50.08C645.49,103.66,638.05,105.68,633.8,109.54Z"
          fill="#0071f2"/>
    <path d="M633.8,109.54a29.25,29.25,0,0,1,11.69-5.88s-8-22.14-31.37-36.76c0,0,25.59,27.4,17.41,39.33Z"
          opacity="0.2"/>
    <circle cx="631.37" cy="429.53" r="43.9" fill="#fff" opacity="0.45"/>
    <path d="M631.37,474a44.51,44.51,0,1,1,44.51-44.51A44.56,44.56,0,0,1,631.37,474Zm0-87.8a43.29,43.29,0,1,0,43.29,43.29A43.34,43.34,0,0,0,631.37,386.24Z"
          fill="#0071f2"/>
    <path d="M610.31,451.66a1.78,1.78,0,0,1-1.25-.5,1.82,1.82,0,0,1-.08-2.58l16.39-17.4a1.83,1.83,0,1,1,2.66,2.51l-16.39,17.4A1.82,1.82,0,0,1,610.31,451.66Z"
          fill="#0071f2"/>
    <path d="M635.73,407.4a14.15,14.15,0,1,0,14.14,14.15A14.15,14.15,0,0,0,635.73,407.4Zm0,25a10.89,10.89,0,1,1,10.89-10.89A10.88,10.88,0,0,1,635.73,432.43Z"
          fill="#0071f2"/>
    <path d="M243.87,357.91s-9.19,38.61,1.75,66.83c0,0,5.22,29.12,51.17,29.82l97.47,1.74S392.52,492.4,414.1,541l13.58,34s29.24,5.57,39-7l-17.06-93.29-7.31-40.38s0-24.32-21.93-30.61L380,397.12l54.07-32s1.28,38.18,15.2,59.65l23,46.61s18.79,1.31,30.28-13.84c0,0-14.1-40.72-22.45-95.55l-3.39-21.15s-.79-36.29-37.86-30.28l-108.2,28.11L272.78,352.4Z"
          fill="#242424"/>
    <path d="M401.23,384.54l-49.69,2.65c-20.77-1.39-11.91-13.29-11.91-13.29-17.72,14.67,5.19,18.83,5.19,18.83L380,397.12Z"
          opacity="0.2"/>
    <path d="M427.68,575v4.67s29,8.33,38.24-1.92L462.08,572S452.93,578.94,427.68,575Z" fill="#f4bba8"/>
    <path d="M426.18,613.5s-4.45-1.48-3-12.17l4.47-21.66s26.94,8,38.24-1.92c0,0,14.87,17.35,32.38,26,0,0,20.45,5.72,11.17,24.23a8.74,8.74,0,0,1-4.28,4.12c-5.41,2.38-18.77,5.54-43.1-4Z"
          fill="#0071f2"/>
    <path d="M501.36,459l3.73,3s-7.11,13-28,16.35l-2.38-6.91A36.5,36.5,0,0,0,501.36,459Z" fill="#f4bba8"/>
    <path d="M561.48,483c-.71,21.09-44.07,22.27-44.07,22.27-1-.08-1.93-.15-2.83-.18-1.18-.06-2.29-.08-3.32-.06-9.19.07-12.81,2.37-12.81,2.37-9.1,2.94-14.53.43-17.77-3.41h0c-4.34-5.15-4.73-12.68-4.73-12.68-2.38-13.52,1.18-13,1.18-13,21.8-3.79,28-16.35,28-16.35,6.87,6.4,38.15,8,38.15,8,16.07,0,18.4,6.94,18.47,10.7A8.06,8.06,0,0,1,561.48,483Z"
          fill="#0071f2"/>
    <path d="M512.44,510.49l-19,2.83c-10.54.69-12.37-8.35-12.8-9.33,3.24,3.84,8.67,6.35,17.77,3.41,0,0,3.62-2.3,12.81-2.37Z"
          fill="#242424"/>
    <path d="M515.45,510.12l-.87-5c.9,0,1.84.1,2.83.18,0,0,43.36-1.18,44.07-22.27a8.06,8.06,0,0,0,.23-2.34h0C573.93,508.86,515.45,510.12,515.45,510.12Z"
          fill="#242424"/>
    <ellipse cx="276.35" cy="163.55" rx="21.97" ry="36.41" fill="#f4bba8"/>
    <path d="M257.61,182.56S245.88,185,243,160.15c0,0-12.08-31.89,7.3-31.59,0,0,7.84-18,28.47-9.4,0,0,12.79-12,25.32.52,0,0,8,26.08-6.71,33.4a4.08,4.08,0,0,0-4.34-1.29s-7.14,3-13.92-1.3c0,0-21.5-6.27-19.93,12.53l-3.14,14.52S257.08,181.19,257.61,182.56Z"
          fill="#242424"/>
    <ellipse cx="255.76" cy="169.7" rx="6.61" ry="7.84" fill="#f4bba8"/>
    <path d="M327.38,330.92l2.75,4.56a3.36,3.36,0,0,1-1.06,4.58c-8.27,5.25-35.48,19.78-82.17,18.86a5.26,5.26,0,0,1-4.82-7.27l.06-.14s51.86-.68,82.5-17.4A9,9,0,0,0,327.38,330.92Z"
          fill="#0071f2"/>
    <path d="M327.38,330.92l2.75,4.56a3.36,3.36,0,0,1-1.06,4.58c-8.27,5.25-35.48,19.78-82.17,18.86a5.26,5.26,0,0,1-4.82-7.27l.06-.14s51.86-.68,82.5-17.4A9,9,0,0,0,327.38,330.92Z"
          opacity="0.2"/>
    <path d="M456.81,218.19,463.87,175a43.1,43.1,0,0,1,26.83-29.2c10.61-4,22.7-2.33,31.23,5.13,5,4.36,9.17,10.9,9.61,20.63l-7.07,48.06s-3,26.4-31.9,34.18c-10.19,2.74-21.22.23-28.53-7.38C458.63,240.79,454.56,231.94,456.81,218.19Z"
          fill="#0071f2"/>
    <path d="M487.23,247.35h0c-14-1.83-23.47-16.92-21.23-33.7.07-.54.15-1.08.25-1.61l4.64-27h-.05a4.13,4.13,0,0,1-.75-.19l-4.65,27.06c-3.07,17.18,6,33.37,20.26,36.16.45.09.9.16,1.36.22,7.49,1,15.17-1.62,21.33-7.28a4,4,0,0,1-.39-.84C502,245.74,494.53,248.32,487.23,247.35Z"
          fill="#fff"/>
    <path d="M503.82,150.9C490,149,476.5,159.71,472,175.39a3,3,0,0,1,.51.07l.3,0c4.43-15.15,17.53-25.48,30.86-23.62,14,1.82,23.47,16.91,21.23,33.69-.07.54-.15,1.08-.25,1.62l-5.54,32.22a38.2,38.2,0,0,1-5.36,14,2.62,2.62,0,0,1,.67.49,39,39,0,0,0,5.49-14.33l5.54-32.22c3.08-17.17-6-33.37-20.23-36.17C504.74,151,504.28,151,503.82,150.9Z"
          fill="#fff"/>
    <path d="M502.68,157.49a20,20,0,0,1,11.62,6,6.12,6.12,0,0,1,.54-.79,20.69,20.69,0,0,0-12-6.18A22.22,22.22,0,0,0,487.93,160a5.51,5.51,0,0,1,.23.91A21.51,21.51,0,0,1,502.68,157.49Z"
          fill="#fff"/>
    <path d="M469.23,215.62a32.69,32.69,0,0,1,.48-5l4.9-28.48a33,33,0,0,1,7.13-15.6,3.54,3.54,0,0,1-.57-.59A34,34,0,0,0,473.82,182l-4.9,28.48a34.55,34.55,0,0,0-.49,5.27A3.11,3.11,0,0,1,469.23,215.62Z"
          fill="#fff"/>
    <path d="M519.74,169.93a3.83,3.83,0,0,1-.73.54,31,31,0,0,1,2.14,18.15l-4.89,28.48c-2.78,15.48-15.1,26.29-28.08,24.63h0a20.28,20.28,0,0,1-12.95-7.45,3.39,3.39,0,0,1-.82.43,21,21,0,0,0,13.6,8c13.43,1.72,26.18-9.46,29-25.48l4.9-28.48A32.11,32.11,0,0,0,519.74,169.93Z"
          fill="#fff"/>
    <path d="M475.8,193.87l1.62-9.4c2.4-13.4,13.06-22.74,24.28-21.31,9.4,1.22,16.34,10.42,16.42,21.77a3.66,3.66,0,0,1,.81,0h0c0-11.84-7.27-21.48-17.08-22.75-11.67-1.5-22.76,8.22-25.25,22.15L475,193.83a5.44,5.44,0,0,1,.57,0Z"
          fill="#fff"/>
    <path d="M497.85,235a17.66,17.66,0,0,1-8.66,1c-10.65-1.36-17.92-12.83-16.24-25.63.05-.43.12-.86.2-1.28l1-5.67-.26,0a3.53,3.53,0,0,1-.54-.13l-1,5.7c-2.36,13.21,4.61,25.66,15.56,27.81.36.07.71.13,1.06.17a18.54,18.54,0,0,0,9.17-1.09A4.14,4.14,0,0,1,497.85,235Z"
          fill="#fff"/>
    <path d="M517.27,194.59l-.34-.05-3.47,20.23a28.08,28.08,0,0,1-8.21,15.64,4.51,4.51,0,0,1,.29.9,29,29,0,0,0,8.72-16.43l3.47-20.24Z"
          fill="#fff"/>
    <path d="M507.82,170.69a15.12,15.12,0,0,0-6.92-2.84c-9.92-1.27-19.35,7-21.47,18.83l-3.59,20.89a27.56,27.56,0,0,0-.37,3.73,4.28,4.28,0,0,1,.86-.57,24.06,24.06,0,0,1,.31-3l3.6-20.89c2-11.3,11-19.19,20.49-18a14.31,14.31,0,0,1,6.54,2.71A6.63,6.63,0,0,1,507.82,170.69Z"
          fill="#fff"/>
    <path d="M513.2,177.33a4.75,4.75,0,0,1-.64.7,22.61,22.61,0,0,1,1.67,13.49l-3.6,20.89c-2,11-10.5,18.76-19.74,18.05a5.64,5.64,0,0,1-.48.95c9.8,1,19-7.24,21-18.88l3.59-20.9A23.6,23.6,0,0,0,513.2,177.33Z"
          fill="#fff"/>
    <path d="M496.51,174.46a6.74,6.74,0,0,1,.26-1,14.3,14.3,0,0,0-6.12,2.26,3.17,3.17,0,0,1,.6.66A13.55,13.55,0,0,1,496.51,174.46Z"
          fill="#fff"/>
    <path d="M506.59,214.33c-2.87,7-9.14,11.25-15.48,10.45-7.33-.95-12.31-8.87-11.14-17.67,0-.29.08-.58.14-.87l2.94-17.13a20,20,0,0,1,1.93-5.75,3.87,3.87,0,0,1-.5-.86,21.24,21.24,0,0,0-2.21,6.48l-2.95,17.12c-1.64,9.25,3.24,18,10.91,19.47.25.05.49.09.74.12,6.72.84,13.35-3.63,16.4-11.07A4.3,4.3,0,0,1,506.59,214.33Z"
          fill="#fff"/>
    <path d="M510.79,193l-.61,3.56a2.83,2.83,0,0,1,.65,0l.17,0,.6-3.5c1.31-7.47-1.65-14.81-7.25-18a6,6,0,0,1-.15,1C509.34,179.2,512,186,510.79,193Z"
          fill="#fff"/>
    <path d="M499,179.14c-6.42-.82-12.52,4.53-13.89,12.19l-.65,3.8a4.2,4.2,0,0,1,.78.26l.68-3.95c1.28-7.14,7-12.11,12.94-11.33,5.67.75,9.51,6.88,8.6,13.68,0,.21-.06.42-.1.63L505,207.77c-1.11,6.18-5.57,10.87-10.81,11.37a5.37,5.37,0,0,1-.13,1c5.68-.48,10.55-5.54,11.75-12.24l2.3-13.34c1.3-7.27-2.54-14.12-8.57-15.3C499.35,179.2,499.15,179.16,499,179.14Z"
          fill="#fff"/>
    <path d="M489.86,189.46a2.74,2.74,0,0,1,.5.07,7.88,7.88,0,0,1,7.46-3.8,6.17,6.17,0,0,1,2.4.85,5.31,5.31,0,0,1,.47-.84,6.88,6.88,0,0,0-2.7-1c-3.26-.41-6.53,1.37-8.51,4.64A2.5,2.5,0,0,1,489.86,189.46Z"
          fill="#fff"/>
    <path d="M502.19,205.45a11.23,11.23,0,0,1-1.06,3.13,2.56,2.56,0,0,1,.64.55,12.16,12.16,0,0,0,1.22-3.57l1.65-9.58a12.21,12.21,0,0,0,.14-2.7,3,3,0,0,1-.81.25,10.92,10.92,0,0,1-.14,2.35Z"
          fill="#fff"/>
    <path d="M494.83,213.44a6.32,6.32,0,0,1-1.79,0c-4-.55-6.7-4.89-6-9.69l.06-.42.75-4.33a3.39,3.39,0,0,1-.77-.29l-.78,4.51c-.94,5.28,1.86,10.26,6.25,11.11l.4.06a7.34,7.34,0,0,0,2,0A7.47,7.47,0,0,1,494.83,213.44Z"
          fill="#fff"/>
    <path d="M497,190.44c-2.93-.37-5.7,2.08-6.31,5.57l-1,5.81a6.38,6.38,0,0,0-.09,1.63,4,4,0,0,1,.81-.67,6,6,0,0,1,.08-.84l1-5.81c.53-2.94,2.87-5,5.34-4.67s3.92,2.85,3.54,5.66a2,2,0,0,0,0,.24l-1,5.8a5.75,5.75,0,0,1-3.42,4.46,7.51,7.51,0,0,1-.28,1.06,6.63,6.63,0,0,0,4.5-5.41l1-5.8c.61-3.3-1.12-6.42-3.85-7Z"
          fill="#fff"/>
    <path d="M490.53,195.59l-8.19,22.85a1.68,1.68,0,0,0,1.59,2.25h14.93a1.68,1.68,0,0,0,1.68-1.73l-.73-23.38s7.2-5.1,5.26-12.62a7.64,7.64,0,0,0-6.95-5.57,10.57,10.57,0,0,0-8,3.09,10.15,10.15,0,0,0-3.14,7.93A9.69,9.69,0,0,0,490.53,195.59Z"
          fill="#242424"/>
    <rect x="440.35" y="272.02" width="82.13" height="25.99" rx="10.67" fill="#e6e7e8"/>
    <path d="M660.14,319.87v27.78a7.53,7.53,0,0,0,1.57,4.73c1.31,1.63,3.69,3.19,7.95,2.91l39.93,0a4.11,4.11,0,0,0,1.21-.17c1.79-.54,6.52-2.46,6.52-7.52v-27.5a6.63,6.63,0,0,0-7.19-6.83H666.5A6.54,6.54,0,0,0,660.14,319.87Z"
          fill="#0071f2"/>
    <path d="M662.72,314.63s1.62-5.87,13.5-6.15h26.35s7.88-.32,11.32,5.67a11.59,11.59,0,0,0-3.76-.85H666.5A4.83,4.83,0,0,0,662.72,314.63Z"
          fill="#0071f2"/>
    <path d="M662.72,314.63s1.62-5.87,13.5-6.15h26.35s7.88-.32,11.32,5.67a11.59,11.59,0,0,0-3.76-.85H666.5A4.83,4.83,0,0,0,662.72,314.63Z"
          opacity="0.2"/>
    <path d="M693.26,332.3a7.29,7.29,0,1,0-7.56.27l-2.52,16.65A1.57,1.57,0,0,0,684.8,351l10-.48a1.56,1.56,0,0,0,1.46-1.84Z"
          fill="#fff"/>
    <path d="M414.19,141.62a52.4,52.4,0,0,0-23.72-2.12.54.54,0,0,0,.14,1.07,51.11,51.11,0,0,1,23.17,2.05c.63.21,1-.79.41-1Z"
          fill="#0071f2"/>
    <path d="M420.13,148.07a48,48,0,0,0-36.79-3.37c-.64.2-.24,1.19.39,1a46.92,46.92,0,0,1,36,3.38c.59.31,1-.69.41-1Z"
          fill="#0071f2"/>
    <path d="M424.11,153.87c-10.56-5.66-23-9.31-35-7.12a35.84,35.84,0,0,0-11,3.92c-.59.32-.2,1.32.39,1,11.62-6.43,25.16-5.13,37-.54a74.64,74.64,0,0,1,8.13,3.75c.59.32,1-.68.4-1Z"
          fill="#0071f2"/>
    <path d="M427,160.14c-11.16-8.61-25.77-12.43-39.5-9a46.45,46.45,0,0,0-12.88,5.39c-.57.34-.18,1.34.4,1a44.26,44.26,0,0,1,22-6.54,45.61,45.61,0,0,1,20.13,4.43,49,49,0,0,1,9.23,5.63c.53.41,1.17-.44.64-.85Z"
          fill="#0071f2"/>
    <path d="M428.82,166.64a40.9,40.9,0,0,0-43.53-11,50,50,0,0,0-13.84,7.46.53.53,0,0,0,.62.85A45.71,45.71,0,0,1,396,154.53a39.23,39.23,0,0,1,32,12.77c.45.5,1.28-.16.82-.66Z"
          fill="#0071f2"/>
    <path d="M404.26,157.1A37.1,37.1,0,0,0,386,158.55a42.4,42.4,0,0,0-16.93,11.2c-.47.49.35,1.14.81.65,9-9.51,21.57-14.39,34.22-12.23.66.11.8-1,.14-1.07Z"
          fill="#0071f2"/>
    <path d="M429.9,174.12a41,41,0,0,0-14.69-13.28c-.59-.32-1,.68-.41,1a39.81,39.81,0,0,1,14.27,12.95c.39.57,1.21-.1.83-.66Z"
          fill="#0071f2"/>
    <path d="M430.06,182.23c-4.13-9.4-11.59-17-21.08-20.3a33,33,0,0,0-27.58,2.94A42.18,42.18,0,0,0,368,177.94c-.38.57.43,1.23.81.66,5.83-8.78,14.48-15.41,24.7-17A32,32,0,0,1,419,168.9a37.75,37.75,0,0,1,10.07,13.76.53.53,0,0,0,1-.43Z"
          fill="#0071f2"/>
    <path d="M429.19,192.37c-1.39-11.52-8.24-21.58-18.56-26.08a30.5,30.5,0,0,0-30.49,3.86c-6.17,4.63-10.62,11.29-13.6,18.5a.52.52,0,1,0,.95.42c4.8-11.61,13.82-21.55,26.13-23.74a29.19,29.19,0,0,1,27.32,10,32.82,32.82,0,0,1,7.23,17.23.52.52,0,1,0,1-.16Z"
          fill="#0071f2"/>
    <path d="M369,196.26c1.43-7.89,4.68-15.67,10.65-21a26.22,26.22,0,0,1,17.09-6.64A28.42,28.42,0,0,1,413.71,174a26.93,26.93,0,0,1,10.36,15.37c1.66,6.85.23,13.73-1.74,20.42a11,11,0,0,0-.5,3.27c0,.69,1,.53,1-.15a15.56,15.56,0,0,1,.93-4.47c.41-1.49.79-3,1.11-4.51a46.61,46.61,0,0,0,1-6.86,26.39,26.39,0,0,0-.41-6.15,28,28,0,0,0-9.66-16.65,29.35,29.35,0,0,0-17.12-6.69A27.33,27.33,0,0,0,380.73,173c-6.2,4.71-10,11.93-12,19.54-.29,1.18-.54,2.37-.76,3.56a.51.51,0,1,0,1,.14Z"
          fill="#0071f2"/>
    <path d="M419.19,217.59a18,18,0,0,1-.06-5.23c.22-1.07.51-2.13.75-3.2q.72-3,1.39-6.08a43.23,43.23,0,0,0,.88-4.48.51.51,0,1,0-1-.14,42.22,42.22,0,0,1-.88,4.48q-.69,3.13-1.43,6.26c-.24,1.05-.54,2.1-.74,3.16a20.2,20.2,0,0,0,.08,5.38c.07.69,1.09.54,1-.15Z"
          fill="#0071f2"/>
    <path d="M372.55,199.15c1.67-11.23,7.2-22.65,18.18-26.46a22.91,22.91,0,0,1,23.84,5.89,24,24,0,0,1,6.32,14.24c.06.69,1.09.54,1-.15a24.42,24.42,0,0,0-16.57-21.1A23.91,23.91,0,0,0,379.82,179c-4.78,5.53-7.22,12.79-8.29,20a.51.51,0,1,0,1,.14Z"
          fill="#0071f2"/>
    <path d="M373.63,215.61a.54.54,0,0,0,.14-1.07.54.54,0,0,0-.14,1.07Z" fill="#0071f2"/>
    <path d="M416.21,220.1c-1.35-9.32,3.16-18.29,2.57-27.61a18.39,18.39,0,0,0-4.25-11,20.89,20.89,0,0,0-9.43-6.14c-5.62-1.85-12-1.89-17.31,1.14-4.9,2.81-8.11,7.51-10.38,12.71a57.26,57.26,0,0,0-4.22,25.92c0,.69,1.06.53,1-.16a57,57,0,0,1,3.24-23.09c1.85-4.94,4.49-9.85,8.69-13,4.64-3.51,10.17-4.34,15.73-3.24,7.79,1.54,14.67,7,15.75,15.59,1.23,9.79-3.86,19.22-2.43,29a.52.52,0,0,0,1-.15Z"
          fill="#0071f2"/>
    <path d="M379.4,193.32c-2.24,8.71-2.67,17.82-3,26.77,0,.69,1,.83,1,.14.31-8.95.74-18.07,3-26.77.17-.67-.86-.8-1-.14Z"
          fill="#0071f2"/>
    <path d="M413.54,222.71c-3.14-4.12-2.3-9.74-.87-14.45,1.52-5,3.55-10,2.74-15.36-1.34-8.82-8.64-15.57-17.25-15.54a16.94,16.94,0,0,0-12.32,5.24c-.47.5.35,1.15.81.66,6.05-6.44,16.58-6.29,22.66-.26a18.1,18.1,0,0,1,5.21,11.27c.46,5.47-2.08,10.53-3.4,15.7-1.14,4.49-1.28,9.62,1.6,13.4.41.54,1.23-.12.82-.66Z"
          fill="#0071f2"/>
    <path d="M410.16,223.77c-2.84-3.82-2.58-8.87-1.48-13.36.63-2.61,1.5-5.16,2.22-7.74a33.77,33.77,0,0,0,1.58-7.07c.48-7.84-6.15-14-13.16-14.92-6.22-.84-11.7,3.46-14.89,8.72a18.46,18.46,0,0,0-1.9,4.9,56.74,56.74,0,0,0-1.56,12c-.26,5.79-.51,11.59-.9,17.37,0,.69,1,.83,1,.14.27-4.13.46-8.25.66-12.38.32-6.71.14-14.12,3-20.37,2.15-4.78,6.87-8.89,12-9.41,7.3-.75,15.24,5.85,14.77,13.78a38.53,38.53,0,0,1-1.89,8.18c-.75,2.6-1.63,5.17-2.19,7.83-.92,4.42-.77,9.28,2,13,.41.54,1.23-.12.82-.66Z"
          fill="#0071f2"/>
    <path d="M407.6,226.61c-4.06-6.62-3-14.51-.69-21.65,1.23-3.82,3.34-7.82,2.63-12a10.49,10.49,0,0,0-5.1-7,12.35,12.35,0,0,0-16.11,3.38,24.22,24.22,0,0,0-3.28,8.88,67.49,67.49,0,0,0-1.12,7.89c-.61,6.86-.94,14.32.95,21,.19.67,1.14.24,1-.42-1.66-5.82-1.46-12.31-1-18.33.36-5.38.95-11.15,3.14-16.11a11.3,11.3,0,0,1,15.31-5.69,9.34,9.34,0,0,1,5.39,7.71c.22,4-2,8-3.11,11.73-2.12,7.15-2.74,14.79,1.26,21.3.36.58,1.18-.08.82-.66Z"
          fill="#0071f2"/>
    <path d="M404.65,228.78a65,65,0,0,1-3.15-12.68,24.65,24.65,0,0,1,.07-6.59,27,27,0,0,1,2-6.28c1.33-3.2,2.63-6.68,1.57-10.16a6.68,6.68,0,0,0-6.95-4.65c-3.78.2-6.71,3.15-8.3,6.57a.52.52,0,1,0,.95.41c1.43-3.08,4.06-5.75,7.49-5.91s6.07,2.46,6.17,6.1-2.06,7.13-3.18,10.62a24.44,24.44,0,0,0-.76,10.62,68.86,68.86,0,0,0,3.16,12.37c.21.65,1.16.23.95-.42Z"
          fill="#0071f2"/>
    <path d="M390.13,213.31c0,6.24,1.83,12.15,3.34,18.1.17.66,1.19.51,1-.16-1.47-5.83-3.37-11.68-3.34-17.8,0-.69-1-.83-1-.14Z"
          fill="#0071f2"/>
    <path d="M400.85,229.62a40.62,40.62,0,0,1-3-19.28,39.88,39.88,0,0,1,2.1-9.6c.87-2.45,2.29-5.74,0-7.85s-5,.32-6.27,2.46c-.34.59.47,1.25.81.65.77-1.31,2.12-3.14,3.81-2.81,2.44.49,1.92,3.72,1.31,5.45A48.42,48.42,0,0,0,397,209.12a41.67,41.67,0,0,0,2.9,20.92.52.52,0,0,0,1-.42Z"
          fill="#0071f2"/>
    <path d="M398,230c-4.32-10.42-3.83-22-.52-32.77.2-.66-.75-1.08-.95-.42-3.4,11-3.92,22.92.52,33.61A.52.52,0,0,0,398,230Z"
          fill="#0071f2"/>
    <path d="M389.36,229.28c-4.1-13.13-.8-30.05-.76-30.22l.81.17c0,.16-3.3,16.87.73,29.77Z" fill="#0071f2"/>
    <path d="M392.88,197.17a31,31,0,0,0-2.85,13c0,.69,1,.53,1-.15a29.63,29.63,0,0,1,2.78-12.47.52.52,0,1,0-.95-.41Z"
          fill="#0071f2"/>
    <path d="M389.31,196.4l-.17.56a.54.54,0,0,0,0,.22.45.45,0,0,0,0,.2.34.34,0,0,0,.11.17.4.4,0,0,0,.16.12l.13,0a.51.51,0,0,0,.27,0l.11-.07a.52.52,0,0,0,.17-.22l.17-.56a.52.52,0,0,0,0-.21.49.49,0,0,0,0-.21.39.39,0,0,0-.11-.17.48.48,0,0,0-.16-.12l-.14,0a.39.39,0,0,0-.26,0l-.12.07a.56.56,0,0,0-.16.21Z"
          fill="#0071f2"/>
    <path d="M384.3,183.93a17.28,17.28,0,0,0-4.05,5.64.52.52,0,0,0,.95.42,15.9,15.9,0,0,1,3.73-5.21c.5-.46-.13-1.32-.63-.85Z"
          fill="#0071f2"/>
    <path d="M421.64,195.08l0,.87a.5.5,0,0,0,0,.21.46.46,0,0,0,.08.19.52.52,0,0,0,.34.2.51.51,0,0,0,.38-.11.53.53,0,0,0,.2-.36l0-.87a.38.38,0,0,0,0-.21.48.48,0,0,0-.09-.19.5.5,0,0,0-.34-.2.49.49,0,0,0-.38.11.51.51,0,0,0-.2.36Z"
          fill="#0071f2"/>
    <path d="M413.29,159.9a32.78,32.78,0,0,0-6.72-2.32c-.27-.07-.55.21-.58.47a.54.54,0,0,0,.44.6,32,32,0,0,1,6.45,2.24c.6.3,1-.69.41-1Z"
          fill="#0071f2"/>
    <path d="M370.75,203.19a43.73,43.73,0,0,0-.31,5.24.51.51,0,0,0,.58.45.55.55,0,0,0,.45-.61,38.88,38.88,0,0,1,.3-4.94.51.51,0,1,0-1-.14Z"
          fill="#0071f2"/>
    <path d="M367.27,199.41l-.21,1a.52.52,0,0,0,.1.4.5.5,0,0,0,.34.2.48.48,0,0,0,.38-.1.65.65,0,0,0,.2-.36l.21-1a.52.52,0,0,0-.44-.6.48.48,0,0,0-.38.11.59.59,0,0,0-.2.35Z"
          fill="#0071f2"/>
    <path d="M385.14,141.39l2.54-.81a.55.55,0,0,0,.28-.7.52.52,0,0,0-.67-.29l-2.54.81a.55.55,0,0,0-.28.7.52.52,0,0,0,.67.29Z"
          fill="#0071f2"/>
    <path d="M428.18,194.77a19.22,19.22,0,0,1-.16,6,.51.51,0,1,0,1,.14,20.49,20.49,0,0,0,.17-6.25.52.52,0,1,0-1,.15Z"
          fill="#0071f2"/>
    <path d="M430.4,184.67c.09.6.17,1.19.26,1.79a.52.52,0,0,0,.58.46.57.57,0,0,0,.45-.61l-.27-1.79a.52.52,0,0,0-.58-.46.56.56,0,0,0-.44.61Z"
          fill="#0071f2"/>
    <path d="M358.35,215.61a91.31,91.31,0,0,0-12.45,22.75l16,14.69s6.71-7.89,9.38-14.69A12.86,12.86,0,0,1,383,232.5l7.82.74a1.69,1.69,0,0,0,1.72-2.34h0a1.66,1.66,0,0,0-.77-.84,31.1,31.1,0,0,0-11.83-3,.32.32,0,0,1-.08-.63c2.16-.65,6.85-1.49,14.74-.23a2.3,2.3,0,0,0,2.6-2.81h0a2.29,2.29,0,0,0-1.28-1.53c-2.71-1.23-10.41-4.22-17.5-2.19,0,0-.06-3.26,15.22-3h3.51a2.5,2.5,0,0,0,2.5-2.5h0a2.5,2.5,0,0,0-2.33-2.5,145.15,145.15,0,0,0-20.7,0,.35.35,0,0,1-.19-.66c2.85-1.45,9-4.23,15.07-5a2.4,2.4,0,0,0,2.14-2.39h0a2.42,2.42,0,0,0-2.59-2.42C384.53,201.65,367.29,204,358.35,215.61Z"
          fill="#f4bba8"/>
    <path d="M361.93,255.29c-30.85,42.41-70,65.9-70,65.9-19.54,14.36-29.54,14.44-29.54,14.44C241,337.55,206,256.69,206,256.69c-4.63-10.32-6.72-18.2-7.35-24.19-1.49-13.92,4.84-17.53,4.84-17.53,11.16-12.61,22.49,6.67,22.49,6.67l38.14,62.74c4.85-3.86,8.72,3.16,8.72,3.16,4.43-4.91,22.19-14.37,22.19-14.37,23.13-13.3,48.37-37.16,48.37-37.16,11,2.33,15.56,8,17.38,12.55A16,16,0,0,1,361.93,255.29Z"
          fill="#0071f2"/>
    <path d="M361.93,255.29c-30.85,42.41-70,65.9-70,65.9-19.54,14.36-29.54,14.44-29.54,14.44C241,337.55,206,256.69,206,256.69c-4.63-10.32-6.72-18.2-7.35-24.19-1.49-13.92,4.84-17.53,4.84-17.53,11.16-12.61,22.49,6.67,22.49,6.67l38.14,62.74c4.85-3.86,8.72,3.16,8.72,3.16,4.43-4.91,22.19-14.37,22.19-14.37,23.13-13.3,48.37-37.16,48.37-37.16,11,2.33,15.56,8,17.38,12.55A16,16,0,0,1,361.93,255.29Z"
          fill="#fff" opacity="0.3"/>
    <path d="M361.93,255.29c-30.85,42.41-70,65.9-70,65.9-19.54,14.36-29.54,14.44-29.54,14.44C241,337.55,206,256.69,206,256.69c-4.63-10.32-6.72-18.2-7.35-24.19,0,0,47,95.34,57.17,77.11,0,0,7.29-19.27,6.6-4.55,0,0-5.24,25.58,21.75,10.86,0,0,33.68-9.62,76.6-67.37h0A16,16,0,0,1,361.93,255.29Z"
          fill="#fff" opacity="0.3"/>
</svg>
