<svg width="137" height="48" viewBox="0 0 137 48" fill="none" xmlns="http://www.w3.org/2000/svg">
<path d="M36.061 12.8774V41.9346H32.0921V26.037H16.4354V29.9695H28.1245V31.9991C28.1243 37.076 28.1161 42.1529 28.1293 47.2296C28.1301 47.5458 28.1469 47.7976 28.1833 47.9964C32.6229 47.2725 36.6567 45.3468 39.9438 42.5638V22.1278C39.9438 19.047 39.2606 15.6673 36.061 12.8774Z" fill="#FF2E4C"/>
<path d="M28.1937 14.0905H32.1596V5.37542C34.5459 5.89249 43.5972 11.8123 43.9662 21.0866V38.3127C46.8958 34.2961 48.6287 29.3509 48.6287 23.9988C48.6287 11.9094 39.8067 1.88475 28.2502 0C28.2161 0.203994 28.201 0.463484 28.1993 0.790525L28.1937 14.0905Z" fill="#FF2E4C"/>
<path d="M12.4339 35.119V6.06185H16.4028V21.9594H32.0595V18.0269H20.3704V15.9973C20.3706 10.9204 20.3788 5.8435 20.3656 0.766797C20.3648 0.450663 20.348 0.198827 20.3116 0C15.872 0.723931 11.8382 2.64963 8.55115 5.43264V25.8686C8.55115 28.9494 9.23432 32.3291 12.4339 35.119Z" fill="#FF2E4C"/>
<path d="M20.435 33.9096H16.4692V42.6247C14.0829 42.1077 5.03154 36.1878 4.66259 26.9135V9.6875C1.733 13.704 0 18.6493 0 24.0014C0 36.0908 8.82209 46.1154 20.3786 48.0001C20.4126 47.7962 20.4278 47.5367 20.4295 47.2096L20.435 33.9096Z" fill="#FF2E4C"/>
<path d="M62.2661 34.5897V13.8047H65.4313V22.2132H68.2656V13.8047H71.4307V34.5897H68.2656V24.9295H65.4313V34.5897H62.2661Z" fill="white"/>
<path d="M84.6861 28.3424L83.2924 17.9028H83.2453L81.9697 28.3424H84.6861ZM78.1669 34.5897L81.1313 13.8047H85.312L88.4653 34.5897H85.5128L85.0168 30.8815H81.6627L81.2138 34.5897H78.1669Z" fill="white"/>
<path d="M95.137 34.5897V13.8047H97.617L102.022 26.2757L101.798 20.6071V13.8047H104.644V34.5897H102.4L97.8769 21.6818L98.0539 27.1378V34.5897H95.137Z" fill="white"/>
<path d="M111.839 34.5897V13.8047H115.004V23.3706L118.169 13.8047H121.44L117.992 24.0555L121.712 34.5897H118.37L115.027 24.8822V34.5897H111.839Z" fill="white"/>
<path d="M130.938 31.3626C131.123 31.843 131.503 32.0831 132.078 32.0831C132.652 32.0831 133.03 31.837 133.212 31.3448C133.393 30.853 133.483 30.0085 133.483 28.8118V19.128C133.483 18.1438 133.391 17.4254 133.206 16.9726C133.021 16.52 132.658 16.2935 132.119 16.2935C131.58 16.2935 131.202 16.52 130.985 16.9726C130.769 17.4254 130.661 18.1399 130.661 19.1161V28.8118C130.661 30.0323 130.753 30.8825 130.938 31.3626ZM135.574 33.323C134.849 34.323 133.69 34.8229 132.096 34.8229C130.501 34.8229 129.332 34.3209 128.588 33.3172C127.844 32.3133 127.472 30.7998 127.472 28.7764V19.2696C127.472 15.4591 129.027 13.5537 132.137 13.5537C133.743 13.5537 134.899 14.0379 135.603 15.0064C136.308 15.9747 136.66 17.3959 136.66 19.2696V28.7764C136.66 30.8077 136.298 32.3233 135.574 33.323Z" fill="white"/>
</svg>
